<svg width="800" height="600" viewBox="0 0 800 600" fill="none" xmlns="http://www.w3.org/2000/svg">
<g clip-path="url(#clip0)">
<rect x="339.188" y="281.886" width="122.005" height="229.172" rx="24.641" fill="white" stroke="#323232" stroke-width="7.15429" stroke-linecap="round"/>
<path d="M342.58 429.683V356.43H465.283C456.041 393.994 400.936 431.711 342.58 429.683Z" fill="#7E7E7E" fill-opacity="0.45"/>
<path d="M328.457 275.263C328.457 296.169 309.587 313.718 285.531 313.718C261.475 313.718 242.606 296.169 242.606 275.263C242.606 254.357 261.475 236.809 285.531 236.809C309.587 236.809 328.457 254.357 328.457 275.263Z" fill="white" stroke="#323232" stroke-width="7.15429"/>
<path d="M476.909 275.263C476.909 296.169 495.778 313.718 519.834 313.718C543.89 313.718 562.76 296.169 562.76 275.263C562.76 254.357 543.89 236.809 519.834 236.809C495.778 236.809 476.909 254.357 476.909 275.263Z" fill="white" stroke="#323232" stroke-width="7.15429"/>
<g clip-path="url(#clip1)">
<path d="M521.623 267.807C521.623 304.188 511.021 331.909 491.312 350.562C471.571 369.244 442.18 379.319 403.631 379.319C365.081 379.319 335.196 369.243 314.973 350.534C294.792 331.864 283.743 304.144 283.743 267.807C283.743 231.394 294.851 193.393 315.453 164.587C336.011 135.842 365.878 116.399 403.631 116.399C441.371 116.399 470.756 135.829 490.839 164.556C510.971 193.354 521.623 231.361 521.623 267.807Z" fill="white" stroke="#323232" stroke-width="7.15429" stroke-linecap="round"/>
<path d="M403.295 264.85C399.955 279.852 398.211 287.691 398.211 303.3C402.684 306.08 406.96 306.776 414.309 306.697" stroke="#323232" stroke-width="7.15429" stroke-linecap="round" stroke-linejoin="round"/>
<path d="M340.562 277.499C344.249 277.499 347.519 275.504 349.836 272.414C352.153 269.324 353.56 265.097 353.56 260.465C353.56 255.833 352.153 251.606 349.836 248.516C347.519 245.426 344.249 243.431 340.562 243.431C336.874 243.431 333.604 245.426 331.287 248.516C328.97 251.606 327.563 255.833 327.563 260.465C327.563 265.097 328.97 269.324 331.287 272.414C333.604 275.504 336.874 277.499 340.562 277.499Z" fill="#323232" stroke="#323232" stroke-width="1.78857" stroke-linecap="round"/>
<circle cx="345.656" cy="256.503" r="4.47143" fill="white" stroke="#323232" stroke-width="1.78857"/>
<path d="M469.339 277.499C473.026 277.499 476.296 275.504 478.613 272.414C480.931 269.324 482.338 265.097 482.338 260.465C482.338 255.833 480.931 251.606 478.613 248.516C476.296 245.426 473.026 243.431 469.339 243.431C465.652 243.431 462.382 245.426 460.064 248.516C457.747 251.606 456.34 255.833 456.34 260.465C456.34 265.097 457.747 269.324 460.064 272.414C462.382 275.504 465.652 277.499 469.339 277.499Z" fill="#323232" stroke="#323232" stroke-width="1.78857" stroke-linecap="round"/>
<circle cx="474.434" cy="256.503" r="3.57714" fill="white"/>
<path d="M387.48 327.45C392.846 334.008 406.797 343.19 419.674 327.45" stroke="#323232" stroke-width="7.15429" stroke-linecap="round" stroke-linejoin="round"/>
<g filter="url(#filter0_f)">
<ellipse cx="336.506" cy="322.129" rx="16.9914" ry="9.83714" fill="#FC9D80"/>
</g>
<g filter="url(#filter1_f)">
<ellipse cx="477.803" cy="322.129" rx="16.9914" ry="9.83714" fill="#FC9D80"/>
</g>
</g>
<path d="M259.597 165.266C256.664 125.786 267.646 105.349 300.734 97.3004C300.734 97.3004 399.106 -0.176533 485.852 64.212C572.597 128.601 518.94 238.066 518.94 238.066C498.372 210.343 489.367 204.786 491.217 169.738C416.378 192.226 385.184 185.565 343.66 139.332C338.26 169.182 332.034 179.937 310.572 192.457C314.412 214.48 291.792 233.594 285.532 239.854C265.564 217.959 261.785 201.94 259.597 165.266Z" fill="#323232"/>
<path d="M340.327 413.464C369.203 463.498 439.123 459.581 460.927 413.921C461.52 412.678 462.858 412.312 463.715 412.7C511.932 434.553 543.594 457.797 565.216 488.145C586.863 518.528 598.714 556.399 606.602 608.042C606.766 609.12 605.922 610.089 604.858 610.089H193.368C192.308 610.089 191.462 609.116 191.632 608.039C200.151 553.813 214.163 515.492 237.116 485.517C260.071 455.541 292.233 433.562 337.722 412.509C338.54 412.13 339.731 412.431 340.327 413.464Z" fill="white" stroke="#323232" stroke-width="7.15429" stroke-linecap="round" stroke-linejoin="round"/>
</g>
<defs>
<filter id="filter0_f" x="298.052" y="290.829" width="76.9086" height="62.6" filterUnits="userSpaceOnUse" color-interpolation-filters="sRGB">
<feFlood flood-opacity="0" result="BackgroundImageFix"/>
<feBlend mode="normal" in="SourceGraphic" in2="BackgroundImageFix" result="shape"/>
<feGaussianBlur stdDeviation="10.7314" result="effect1_foregroundBlur"/>
</filter>
<filter id="filter1_f" x="439.349" y="290.829" width="76.9086" height="62.6" filterUnits="userSpaceOnUse" color-interpolation-filters="sRGB">
<feFlood flood-opacity="0" result="BackgroundImageFix"/>
<feBlend mode="normal" in="SourceGraphic" in2="BackgroundImageFix" result="shape"/>
<feGaussianBlur stdDeviation="10.7314" result="effect1_foregroundBlur"/>
</filter>
<clipPath id="clip0">
<rect width="800" height="600" fill="white"/>
</clipPath>
<clipPath id="clip1">
<rect width="245.034" height="339.829" fill="white" transform="translate(280.166 43.6433)"/>
</clipPath>
</defs>
</svg>
