<svg width="800" height="600" viewBox="0 0 800 600" fill="none" xmlns="http://www.w3.org/2000/svg">
<g clip-path="url(#clip0)">
<path d="M340.327 413.464C369.203 463.498 439.123 459.581 460.927 413.921C461.52 412.678 462.858 412.312 463.715 412.7C511.932 434.553 543.594 457.797 565.216 488.145C586.863 518.528 598.714 556.399 606.602 608.042C606.766 609.12 605.922 610.089 604.858 610.089H193.368C192.308 610.089 191.462 609.116 191.632 608.039C200.151 553.813 214.163 515.492 237.116 485.517C260.071 455.541 292.233 433.562 337.722 412.509C338.54 412.13 339.731 412.431 340.327 413.464Z" fill="white" stroke="#323232" stroke-width="7.15429" stroke-linecap="round" stroke-linejoin="round"/>
<rect x="339.383" y="281.828" width="121.616" height="228.44" rx="24.5622" fill="white" stroke="#323232" stroke-width="7.13143" stroke-linecap="round"/>
<path d="M342.763 429.153V356.134H465.074C455.862 393.578 400.933 431.175 342.763 429.153Z" fill="#7E7E7E" fill-opacity="0.45"/>
<path d="M323.337 275.589C323.337 296.428 304.528 313.92 280.549 313.92C256.569 313.92 237.76 296.428 237.76 275.589C237.76 254.749 256.569 237.257 280.549 237.257C304.528 237.257 323.337 254.749 323.337 275.589Z" fill="white" stroke="#323232" stroke-width="7.13143"/>
<path d="M478.446 275.589C478.446 296.428 497.255 313.92 521.234 313.92C545.214 313.92 564.023 296.428 564.023 275.589C564.023 254.749 545.214 237.257 521.234 237.257C497.255 237.257 478.446 254.749 478.446 275.589Z" fill="white" stroke="#323232" stroke-width="7.13143"/>
<path d="M519.451 257.334C519.451 297.362 508.829 327.886 489.117 348.395C469.426 368.882 440.172 379.886 401.837 379.886C363.498 379.886 333.753 368.879 313.582 348.366C293.404 327.844 282.331 297.322 282.331 257.334C282.331 217.296 293.442 175.533 314.029 143.887C334.589 112.284 364.359 91.0628 401.837 91.0628C439.299 91.0628 468.591 112.267 488.679 143.856C508.799 175.496 519.451 217.266 519.451 257.334Z" fill="white" stroke="#323232" stroke-width="7.13143" stroke-linecap="round"/>
<path d="M401.783 255.086C398.269 267.23 396.434 273.576 396.434 286.21C401.14 288.461 405.64 289.024 413.371 288.96" stroke="#323232" stroke-width="7.13143" stroke-linecap="round" stroke-linejoin="round"/>
<path d="M338.969 275.099C342.644 275.099 345.903 273.11 348.214 270.03C350.524 266.95 351.926 262.736 351.926 258.119C351.926 253.503 350.524 249.289 348.214 246.209C345.903 243.129 342.644 241.14 338.969 241.14C335.293 241.14 332.034 243.129 329.724 246.209C327.414 249.289 326.011 253.503 326.011 258.119C326.011 262.736 327.414 266.95 329.724 270.03C332.034 273.11 335.293 275.099 338.969 275.099Z" fill="#323232" stroke="#323232" stroke-width="1.78286" stroke-linecap="round"/>
<circle cx="344.047" cy="254.17" r="4.45714" fill="white" stroke="#323232" stroke-width="1.78286"/>
<path d="M467.334 275.099C471.01 275.099 474.269 273.11 476.579 270.03C478.889 266.95 480.292 262.736 480.292 258.119C480.292 253.503 478.889 249.289 476.579 246.209C474.269 243.129 471.01 241.14 467.334 241.14C463.659 241.14 460.4 243.129 458.089 246.209C455.779 249.289 454.377 253.503 454.377 258.119C454.377 262.736 455.779 266.95 458.089 270.03C460.4 273.11 463.659 275.099 467.334 275.099Z" fill="#323232" stroke="#323232" stroke-width="1.78286" stroke-linecap="round"/>
<circle cx="472.413" cy="254.17" r="3.56571" fill="white"/>
<path d="M387.52 316.594C392.869 323.131 406.775 332.283 419.611 316.594" stroke="#323232" stroke-width="7.13143" stroke-linecap="round" stroke-linejoin="round"/>
<g filter="url(#filter0_f)">
<ellipse cx="331.36" cy="307.68" rx="16.9371" ry="9.80571" fill="#FC9D80"/>
</g>
<g filter="url(#filter1_f)">
<ellipse cx="472.206" cy="307.68" rx="16.9371" ry="9.80571" fill="#FC9D80"/>
</g>
<path d="M432.092 133.851C393.134 209.446 361.019 226.136 276.983 233.691C260.046 118.697 287.075 94.2783 413.372 75.0171C516.142 109.285 518.772 142.076 521.234 233.691C459.606 216.129 454.099 190.551 432.092 133.851Z" fill="#323232"/>
<path fill-rule="evenodd" clip-rule="evenodd" d="M404.237 470.812C505.655 470.812 587.871 369.439 587.871 244.389C587.871 119.339 505.655 34.0117 404.237 34.0117C302.818 34.0117 220.603 119.339 220.603 244.389C220.603 369.439 302.818 470.812 404.237 470.812ZM400.671 370.972C466.642 370.972 520.123 313.9 520.123 243.498C520.123 173.096 466.642 116.023 400.671 116.023C334.7 116.023 281.22 173.096 281.22 243.498C281.22 313.9 334.7 370.972 400.671 370.972Z" fill="#323232"/>
<g filter="url(#filter2_d)">
<path d="M285.774 370.972C260.277 370.972 239.608 396.515 239.608 428.024C239.608 433.136 240.156 438.109 241.187 442.848C232.823 454.354 218.299 461.006 220.081 487.749C221.864 514.492 278.024 609.079 320.813 615.223C424.927 630.174 422.392 559.879 508.904 545.692C534.792 541.446 582.002 519.131 582.002 486.857C582.002 468.338 570.99 451.906 561.035 439.938C561.608 436.32 561.907 432.591 561.907 428.788C561.907 396.857 540.961 370.972 515.123 370.972H285.774Z" fill="#323232"/>
</g>
</g>
<defs>
<filter id="filter0_f" x="293.029" y="276.48" width="76.6629" height="62.4" filterUnits="userSpaceOnUse" color-interpolation-filters="sRGB">
<feFlood flood-opacity="0" result="BackgroundImageFix"/>
<feBlend mode="normal" in="SourceGraphic" in2="BackgroundImageFix" result="shape"/>
<feGaussianBlur stdDeviation="10.6971" result="effect1_foregroundBlur"/>
</filter>
<filter id="filter1_f" x="433.874" y="276.48" width="76.6629" height="62.4" filterUnits="userSpaceOnUse" color-interpolation-filters="sRGB">
<feFlood flood-opacity="0" result="BackgroundImageFix"/>
<feBlend mode="normal" in="SourceGraphic" in2="BackgroundImageFix" result="shape"/>
<feGaussianBlur stdDeviation="10.6971" result="effect1_foregroundBlur"/>
</filter>
<filter id="filter2_d" x="198.537" y="353.143" width="404.859" height="289.114" filterUnits="userSpaceOnUse" color-interpolation-filters="sRGB">
<feFlood flood-opacity="0" result="BackgroundImageFix"/>
<feColorMatrix in="SourceAlpha" type="matrix" values="0 0 0 0 0 0 0 0 0 0 0 0 0 0 0 0 0 0 127 0" result="hardAlpha"/>
<feOffset dy="3.56571"/>
<feGaussianBlur stdDeviation="10.6971"/>
<feColorMatrix type="matrix" values="0 0 0 0 0.0784314 0 0 0 0 0.137255 0 0 0 0 0.490196 0 0 0 0.16 0"/>
<feBlend mode="normal" in2="BackgroundImageFix" result="effect1_dropShadow"/>
<feBlend mode="normal" in="SourceGraphic" in2="effect1_dropShadow" result="shape"/>
</filter>
<clipPath id="clip0">
<rect width="800" height="600" fill="white"/>
</clipPath>
</defs>
</svg>
