<svg width="800" height="600" viewBox="0 0 800 600" fill="none" xmlns="http://www.w3.org/2000/svg">
<g clip-path="url(#clip0)">
<rect x="340.292" y="282.462" width="119.637" height="224.723" rx="24.1625" fill="white" stroke="#323232" stroke-width="7.01538" stroke-linecap="round"/>
<path d="M343.618 427.389V355.558H463.938C454.876 392.393 400.841 429.378 343.618 427.389Z" fill="#7E7E7E" fill-opacity="0.45"/>
<path d="M328.015 270.497C328.015 290.997 309.512 308.204 285.923 308.204C262.334 308.204 243.831 290.997 243.831 270.497C243.831 249.996 262.334 232.789 285.923 232.789C309.512 232.789 328.015 249.996 328.015 270.497Z" fill="white" stroke="#323232" stroke-width="7.01538"/>
<path d="M473.585 270.497C473.585 290.997 492.088 308.204 515.677 308.204C539.266 308.204 557.769 290.997 557.769 270.497C557.769 249.996 539.266 232.789 515.677 232.789C492.088 232.789 473.585 249.996 473.585 270.497Z" fill="white" stroke="#323232" stroke-width="7.01538"/>
<g clip-path="url(#clip1)">
<path d="M517.431 258.366C517.431 297.742 506.982 327.77 487.59 347.945C468.22 368.098 439.442 378.923 401.73 378.923C364.016 378.923 334.754 368.096 314.912 347.916C295.062 327.728 284.169 297.703 284.169 258.366C284.169 219.034 295.055 190.828 314.803 172.41C334.595 153.95 363.863 144.785 401.73 144.785C439.597 144.785 468.379 153.95 487.698 172.382C506.987 190.786 517.431 218.993 517.431 258.366Z" fill="white" stroke="#323232" stroke-width="7.01538" stroke-linecap="round"/>
<path d="M401.677 285.969C398.22 297.916 396.415 304.158 396.415 316.587C401.045 318.801 405.471 319.355 413.077 319.292" stroke="#323232" stroke-width="7.01538" stroke-linecap="round" stroke-linejoin="round"/>
<path d="M339.885 309.164C343.5 309.164 346.707 307.208 348.979 304.178C351.252 301.148 352.631 297.003 352.631 292.461C352.631 287.92 351.252 283.774 348.979 280.744C346.707 277.714 343.5 275.758 339.885 275.758C336.269 275.758 333.063 277.714 330.79 280.744C328.518 283.774 327.138 287.92 327.138 292.461C327.138 297.003 328.518 301.148 330.79 304.178C333.063 307.208 336.269 309.164 339.885 309.164Z" fill="#323232" stroke="#323232" stroke-width="1.75385" stroke-linecap="round"/>
<circle cx="344.881" cy="288.577" r="4.38462" fill="white" stroke="#323232" stroke-width="1.75385"/>
<path d="M466.162 309.164C469.777 309.164 472.984 307.208 475.256 304.178C477.529 301.148 478.908 297.003 478.908 292.461C478.908 287.92 477.529 283.774 475.256 280.744C472.984 277.714 469.777 275.758 466.162 275.758C462.546 275.758 459.34 277.714 457.067 280.744C454.795 283.774 453.415 287.92 453.415 292.461C453.415 297.003 454.795 301.148 457.067 304.178C459.34 307.208 462.546 309.164 466.162 309.164Z" fill="#323232" stroke="#323232" stroke-width="1.75385" stroke-linecap="round"/>
<circle cx="471.158" cy="288.577" r="3.50769" fill="white"/>
<path d="M389.4 339.774C394.661 346.204 408.341 355.208 420.969 339.774" stroke="#323232" stroke-width="7.01538" stroke-linecap="round" stroke-linejoin="round"/>
<g filter="url(#filter0_f)">
<ellipse cx="332.4" cy="328.938" rx="16.6615" ry="9.64615" fill="#FC9D80"/>
</g>
<g filter="url(#filter1_f)">
<ellipse cx="470.954" cy="328.938" rx="16.6615" ry="9.64615" fill="#FC9D80"/>
</g>
</g>
<path d="M262.246 191.262C256.355 243.885 284.169 279.831 289.431 284.215C289.431 284.215 295.095 237.662 317.119 200.908C384.568 225.193 412.336 225.983 479.723 200.908C491.123 220.2 506.031 248.262 512.619 284.215C523.569 279.831 540.929 199.058 534.969 161.446C529.01 123.834 500.141 126.571 500.141 126.571C500.141 126.571 520.939 107.903 512.619 89.2344C504.3 70.566 464.784 89.2344 464.784 89.2344C464.784 89.2344 483.502 62.2689 452.305 53.9719C421.108 45.6748 383.672 80.9373 383.672 80.9373C383.672 80.9373 398.231 53.9719 371.193 53.9719C344.156 53.9719 317.119 107.903 317.119 107.903C317.119 107.903 310.679 86.7391 298.2 99.1847C285.721 111.63 292.161 155.611 292.161 155.611C292.161 155.611 268.137 138.638 262.246 191.262Z" fill="#323232"/>
<path d="M341.396 401.552C369.416 453.579 441.277 449.069 461.416 401.778C461.68 401.158 462.393 400.913 462.904 401.142C512.592 423.376 545.201 447.039 567.389 478.213C589.591 509.408 601.511 548.335 609.405 601.412C609.498 602.037 609.006 602.579 608.428 602.579H191.471C190.895 602.579 190.4 602.035 190.496 601.408C198.988 545.652 213.131 506.285 236.657 475.533C260.185 444.781 293.249 422.444 339.979 401.034C340.449 400.819 341.106 401.012 341.396 401.552Z" fill="white" stroke="#323232" stroke-width="4" stroke-linecap="round" stroke-linejoin="round"/>
<path d="M574.264 483.683C578.769 489.001 581.484 495.87 581.484 503.37C581.484 520.248 567.734 533.931 550.773 533.931C542.442 533.931 534.886 530.63 529.354 525.271C523.821 530.63 516.265 533.931 507.935 533.931C499.604 533.931 492.048 530.63 486.516 525.271C480.983 530.63 473.427 533.931 465.096 533.931C456.766 533.931 449.21 530.63 443.677 525.271C438.145 530.63 430.589 533.931 422.258 533.931C413.928 533.931 406.372 530.63 400.839 525.271C395.306 530.63 387.751 533.931 379.42 533.931C371.089 533.931 363.533 530.63 358.001 525.271C352.468 530.63 344.912 533.931 336.582 533.931C328.251 533.931 320.695 530.63 315.163 525.271C309.63 530.63 302.074 533.931 293.744 533.931C285.413 533.931 277.857 530.63 272.324 525.271C266.792 530.63 259.236 533.931 250.905 533.931C233.944 533.931 220.194 520.248 220.194 503.37C220.194 495.497 223.185 488.32 228.099 482.902C257.645 447.435 289.55 419.564 336.582 405.154C378.396 457.023 433.158 456.128 467.539 405.154C526.46 427.244 553.753 453.035 574.264 483.683Z" fill="#323232" fill-opacity="0.3"/>
<path d="M568.109 465.798C572.445 471.116 575.058 477.985 575.058 485.484C575.058 502.363 561.825 516.046 545.501 516.046C537.484 516.046 530.212 512.745 524.887 507.386C519.562 512.745 512.291 516.046 504.273 516.046C496.256 516.046 488.984 512.745 483.659 507.386C478.334 512.745 471.062 516.046 463.045 516.046C455.027 516.046 447.756 512.745 442.431 507.386C437.106 512.745 429.834 516.046 421.817 516.046C413.799 516.046 406.528 512.745 401.203 507.386C395.878 512.745 388.606 516.046 380.589 516.046C372.572 516.046 365.3 512.745 359.975 507.386C354.65 512.745 347.379 516.046 339.361 516.046C331.344 516.046 324.072 512.745 318.747 507.386C313.422 512.745 306.151 516.046 298.133 516.046C290.116 516.046 282.844 512.745 277.519 507.386C272.195 512.745 264.923 516.046 256.905 516.046C240.581 516.046 227.348 502.363 227.348 485.484C227.348 477.612 230.227 470.435 234.956 465.017C263.391 429.55 295.658 413.304 340.922 398.894C382.15 449.868 426.773 448.974 459.862 398C516.568 420.09 548.369 435.149 568.109 465.798Z" fill="#323232"/>
<path d="M383.055 284.491C398.813 278.197 407.379 278.04 422.123 284.491" stroke="#323232" stroke-width="6.79443" stroke-linecap="round"/>
<path d="M303.884 276.318L290.481 263.3" stroke="#323232" stroke-width="6.79443"/>
<path d="M497.609 268.912L512.149 262.451" stroke="#323232" stroke-width="6.79443"/>
<path fill-rule="evenodd" clip-rule="evenodd" d="M345.956 246.204L352.048 252.296L301.602 302.742L299.22 300.361C298.946 299.27 298.712 298.16 298.52 297.033C297.953 293.697 297.785 290.385 297.981 287.145L338.972 246.154C341.329 245.985 343.662 246.006 345.956 246.204Z" fill="white" fill-opacity="0.15"/>
<path d="M382.021 282.827C385.738 304.674 370.852 325.492 348.686 329.263C326.519 333.034 305.586 318.31 301.87 296.463C298.153 274.616 313.039 253.798 335.205 250.027C357.372 246.255 378.305 260.98 382.021 282.827Z" fill="url(#paint0_linear)" fill-opacity="0.3" stroke="#323232" stroke-width="6.79443"/>
<path fill-rule="evenodd" clip-rule="evenodd" d="M507.523 291.287C507.643 288.321 507.458 285.299 506.94 282.257C506.887 281.944 506.83 281.632 506.771 281.322L502.521 277.072L449.59 330.003L451.12 331.533C455.732 332.86 460.62 333.45 465.621 333.19L507.523 291.287Z" fill="white" fill-opacity="0.15"/>
<path d="M503.591 282.827C507.308 304.674 492.422 325.492 470.255 329.263C448.089 333.034 427.156 318.31 423.439 296.463C419.723 274.616 434.608 253.798 456.775 250.027C478.942 246.255 499.874 260.98 503.591 282.827Z" fill="url(#paint1_linear)" fill-opacity="0.3" stroke="#323232" stroke-width="6.79443"/>
</g>
<defs>
<filter id="filter0_f" x="294.692" y="298.246" width="75.4154" height="61.3846" filterUnits="userSpaceOnUse" color-interpolation-filters="sRGB">
<feFlood flood-opacity="0" result="BackgroundImageFix"/>
<feBlend mode="normal" in="SourceGraphic" in2="BackgroundImageFix" result="shape"/>
<feGaussianBlur stdDeviation="10.5231" result="effect1_foregroundBlur"/>
</filter>
<filter id="filter1_f" x="433.246" y="298.246" width="75.4154" height="61.3846" filterUnits="userSpaceOnUse" color-interpolation-filters="sRGB">
<feFlood flood-opacity="0" result="BackgroundImageFix"/>
<feBlend mode="normal" in="SourceGraphic" in2="BackgroundImageFix" result="shape"/>
<feGaussianBlur stdDeviation="10.5231" result="effect1_foregroundBlur"/>
</filter>
<linearGradient id="paint0_linear" x1="334.636" y1="246.677" x2="375.411" y2="330.395" gradientUnits="userSpaceOnUse">
<stop stop-color="white"/>
<stop offset="1" stop-color="#C0C8FE" stop-opacity="0"/>
</linearGradient>
<linearGradient id="paint1_linear" x1="456.205" y1="246.677" x2="496.981" y2="330.395" gradientUnits="userSpaceOnUse">
<stop stop-color="white"/>
<stop offset="1" stop-color="#C0C8FE" stop-opacity="0"/>
</linearGradient>
<clipPath id="clip0">
<rect width="800" height="600" fill="white"/>
</clipPath>
<clipPath id="clip1">
<rect width="240.277" height="333.231" fill="white" transform="translate(280.662 52.7078)"/>
</clipPath>
</defs>
</svg>
